<?xml version="1.0" encoding="UTF-8" standalone="no"?>
<svg
   width="3333"
   height="3333"
   clip-rule="evenodd"
   fill-rule="evenodd"
   image-rendering="optimizeQuality"
   text-rendering="geometricPrecision"
   shape-rendering="geometricPrecision"
   version="1.1"
   id="svg16068"
   sodipodi:docname="instagram.svg"
   inkscape:export-filename="/home/st33ze/Projects/webDev/MAST/emailTemplate/mast/src/images/instagram.png"
   inkscape:export-xdpi="1.3825382"
   inkscape:export-ydpi="1.3825382"
   inkscape:version="1.1.2 (0a00cf5339, 2022-02-04)"
   xmlns:inkscape="http://www.inkscape.org/namespaces/inkscape"
   xmlns:sodipodi="http://sodipodi.sourceforge.net/DTD/sodipodi-0.dtd"
   xmlns="http://www.w3.org/2000/svg"
   xmlns:svg="http://www.w3.org/2000/svg">
  <defs
     id="defs16072" />
  <sodipodi:namedview
     id="namedview16070"
     pagecolor="#ffffff"
     bordercolor="#666666"
     borderopacity="1.0"
     inkscape:pageshadow="2"
     inkscape:pageopacity="0.0"
     inkscape:pagecheckerboard="0"
     showgrid="false"
     inkscape:zoom="0.125"
     inkscape:cx="472"
     inkscape:cy="1284"
     inkscape:window-width="1920"
     inkscape:window-height="1016"
     inkscape:window-x="0"
     inkscape:window-y="0"
     inkscape:window-maximized="1"
     inkscape:current-layer="layer3" />
  <g
     inkscape:groupmode="layer"
     id="layer3"
     inkscape:label="background"
     style="display:inline">
    <path
       style="fill:#1a1a1a;fill-opacity:1;stroke:none;stroke-width:128"
       id="path21240"
       sodipodi:type="arc"
       sodipodi:cx="1666.9351"
       sodipodi:cy="1666.7856"
       sodipodi:rx="1666.3179"
       sodipodi:ry="1666.7671"
       sodipodi:start="0"
       sodipodi:end="6.2831504"
       sodipodi:open="true"
       sodipodi:arc-type="arc"
       d="M 3333.2529,1666.7856 A 1666.3179,1666.7671 0 0 1 1666.9496,3333.5527 1666.3179,1666.7671 0 0 1 0.61718775,1666.8147 1666.3179,1666.7671 0 0 1 1666.8914,0.01855526 1666.3179,1666.7671 0 0 1 3333.2529,1666.7275" />
  </g>
  <g
     inkscape:groupmode="layer"
     id="layer2"
     inkscape:label="icon"
     style="display:inline">
    <g
       id="g16066">
      <title
         id="title16063">Layer 1</title>
      <path
         fill="#e4e4e7"
         id="svg_1"
         d="m 1667,0 c 920,0 1667,746 1667,1667 0,920 -746,1667 -1667,1667 C 747,3334 0,2588 0,1667 0,747 746,0 1667,0 Z m -390,752 h 780 c 293,0 532,237 532,525 v 778 c 0,289 -239,525 -532,525 h -780 c -293,0 -532,-236 -532,-525 v -778 c 0,-289 240,-525 532,-525 z m 385,421 c 285,0 516,231 516,516 0,285 -231,516 -516,516 -285,0 -516,-231 -516,-516 0,-285 231,-516 516,-516 z m 0,174 c 188,0 341,153 341,341 0,188 -153,341 -341,341 -189,0 -341,-153 -341,-341 0,-188 153,-341 341,-341 z m 499,-246 c 46,0 84,37 84,84 0,46 -37,84 -84,84 -46,0 -84,-37 -84,-84 0,-46 37,-84 84,-84 z M 1341,901 h 652 c 245,0 445,199 445,443 v 656 c 0,244 -200,443 -445,443 h -652 c -245,0 -445,-199 -445,-443 v -656 c 0,-244 200,-443 445,-443 z" />
    </g>
    <path
       style="display:inline;fill:none;stroke:#1a1a1a;stroke-width:128"
       id="path16777"
       sodipodi:type="arc"
       sodipodi:cx="1665.5099"
       sodipodi:cy="1668.4259"
       sodipodi:rx="1602.7604"
       sodipodi:ry="1601.8481"
       sodipodi:start="0"
       sodipodi:end="6.2831504"
       sodipodi:open="true"
       sodipodi:arc-type="arc"
       d="M 3268.2703,1668.4259 A 1602.7604,1601.8481 0 0 1 1665.5239,3270.274 1602.7604,1601.8481 0 0 1 62.749512,1668.4539 1602.7604,1601.8481 0 0 1 1665.4679,66.577759 1602.7604,1601.8481 0 0 1 3268.2703,1668.37"
       transform="rotate(-0.04344451)" />
  </g>
</svg>
