<?xml version="1.0" encoding="UTF-8" standalone="no"?>
<svg
   version="1.1"
   id="Layer_1"
   x="0px"
   y="0px"
   width="122.879px"
   height="122.879px"
   viewBox="0 0 122.879 122.879"
   enable-background="new 0 0 122.879 122.879"
   xml:space="preserve"
   sodipodi:docname="web.svg"
   inkscape:export-filename="/home/st33ze/Projects/webDev/MAST/emailTemplate/mast/src/images/web.png"
   inkscape:export-xdpi="37.5"
   inkscape:export-ydpi="37.5"
   inkscape:version="1.1.2 (0a00cf5339, 2022-02-04)"
   xmlns:inkscape="http://www.inkscape.org/namespaces/inkscape"
   xmlns:sodipodi="http://sodipodi.sourceforge.net/DTD/sodipodi-0.dtd"
   xmlns="http://www.w3.org/2000/svg"
   xmlns:svg="http://www.w3.org/2000/svg"><defs
     id="defs890" /><sodipodi:namedview
     id="namedview888"
     pagecolor="#ffffff"
     bordercolor="#666666"
     borderopacity="1.0"
     inkscape:pageshadow="2"
     inkscape:pageopacity="0.0"
     inkscape:pagecheckerboard="0"
     showgrid="false"
     inkscape:zoom="5.6568543"
     inkscape:cx="45.078057"
     inkscape:cy="56.480154"
     inkscape:window-width="1920"
     inkscape:window-height="1016"
     inkscape:window-x="0"
     inkscape:window-y="0"
     inkscape:window-maximized="1"
     inkscape:current-layer="layer2" /><g
     inkscape:groupmode="layer"
     id="layer1"
     inkscape:label="background"
     style="display:inline"><ellipse
       style="fill:#e4e4e7;fill-opacity:1;stroke:none;stroke-width:1.96571;stroke-linecap:butt;stroke-linejoin:miter;stroke-miterlimit:4;stroke-dasharray:none;stroke-dashoffset:0;stroke-opacity:1"
       id="path35996"
       ry="61.447121"
       rx="61.437847"
       cy="61.458675"
       cx="61.439373" /></g><g
     inkscape:groupmode="layer"
     id="layer2"
     inkscape:label="icon"><g
       id="g885"
       style="fill:#1a1a10;fill-opacity:1"
       transform="matrix(0.90310055,0,0,0.89332959,5.9534055,6.5537765)"><path
         d="m 109.465,89.503 c 0.182,0 0.359,0.019 0.533,0.053 1.146,-1.998 2.191,-4.095 3.135,-6.286 0.018,-0.044 0.037,-0.086 0.059,-0.128 1.418,-3.345 2.488,-6.819 3.209,-10.419 0.559,-2.793 0.904,-5.657 1.035,-8.591 h -16.893 c -0.307,8.574 -2.867,17.03 -7.639,25.371 z m -2.945,5.386 H 89.506 c -5.164,7.481 -12.121,14.87 -20.838,22.167 1.367,-0.17 2.719,-0.388 4.055,-0.655 3.646,-0.729 7.164,-1.817 10.549,-3.264 l -0.002,-0.004 c 3.441,-1.48 6.646,-3.212 9.609,-5.199 2.969,-1.992 5.721,-4.255 8.25,-6.795 l 0.01,-0.01 v 0 c 1.957,-1.949 3.75,-4.03 5.381,-6.24 z M 54.21,117.055 C 45.494,109.759 38.537,102.37 33.372,94.889 H 16.361 c 1.631,2.21 3.423,4.291 5.379,6.24 l 0.01,0.011 v -0.001 c 2.53,2.54 5.282,4.803 8.25,6.795 2.962,1.987 6.167,3.719 9.609,5.199 0.043,0.019 0.086,0.038 0.128,0.059 3.345,1.419 6.819,2.488 10.42,3.209 1.336,0.267 2.686,0.485 4.053,0.654 z M 12.852,89.503 H 29.974 C 25.203,81.162 22.642,72.706 22.337,64.132 H 5.445 c 0.13,2.934 0.475,5.797 1.034,8.59 0.729,3.646 1.818,7.164 3.264,10.549 L 9.747,83.27 c 0.935,2.172 1.969,4.251 3.105,6.233 z M 5.445,58.747 h 16.997 c 0.625,-8.4 3.412,-16.857 8.407,-25.371 H 12.852 C 11.716,35.358 10.682,37.437 9.747,39.61 9.728,39.653 9.708,39.696 9.688,39.737 8.269,43.083 7.2,46.557 6.479,50.157 5.92,52.95 5.575,55.814 5.445,58.747 Z M 16.361,27.991 H 34.299 C 39.407,20.63 46.161,13.226 54.589,5.779 53.093,5.954 51.616,6.187 50.158,6.479 46.511,7.208 42.994,8.297 39.609,9.743 l 10e-4,0.003 c -3.442,1.481 -6.647,3.212 -9.609,5.2 -2.968,1.992 -5.72,4.255 -8.25,6.794 l -0.011,0.01 v 0 c -1.956,1.95 -3.748,4.03 -5.379,6.241 z M 68.289,5.778 c 8.428,7.447 15.182,14.851 20.291,22.212 h 17.939 c -1.631,-2.21 -3.424,-4.291 -5.381,-6.24 l -0.01,-0.01 v 0 C 98.599,19.2 95.847,16.938 92.878,14.946 89.915,12.958 86.71,11.227 83.269,9.746 83.226,9.728 83.183,9.708 83.142,9.687 79.796,8.269 76.322,7.199 72.722,6.479 71.264,6.187 69.785,5.954 68.289,5.778 Z m 41.738,27.598 H 92.029 c 4.996,8.514 7.783,16.971 8.408,25.371 h 16.998 c -0.131,-2.934 -0.477,-5.797 -1.035,-8.59 -0.73,-3.646 -1.818,-7.164 -3.264,-10.549 l -0.004,0.002 c -0.935,-2.173 -1.968,-4.252 -3.105,-6.234 z M 49.106,1.198 C 53.098,0.399 57.21,0 61.44,0 c 4.23,0 8.341,0.399 12.333,1.198 3.934,0.788 7.758,1.97 11.473,3.547 0.051,0.018 0.1,0.037 0.148,0.058 3.703,1.594 7.197,3.485 10.471,5.684 3.268,2.192 6.291,4.677 9.066,7.462 2.785,2.775 5.27,5.799 7.461,9.065 2.197,3.275 4.09,6.768 5.684,10.473 l -0.004,10e-4 0.004,0.009 c 1.607,3.758 2.809,7.628 3.605,11.609 0.799,3.992 1.197,8.104 1.197,12.334 0,4.23 -0.398,8.343 -1.197,12.335 -0.787,3.932 -1.971,7.758 -3.547,11.472 -0.018,0.05 -0.037,0.099 -0.059,0.147 -1.594,3.705 -3.486,7.197 -5.684,10.472 -2.191,3.267 -4.676,6.29 -7.461,9.065 -2.775,2.785 -5.799,5.271 -9.066,7.462 -3.273,2.198 -6.768,4.091 -10.471,5.684 l -0.002,-0.004 -0.01,0.004 c -3.758,1.606 -7.629,2.808 -11.609,3.604 -3.992,0.799 -8.104,1.198 -12.333,1.198 -4.229,0 -8.342,-0.399 -12.334,-1.198 -3.933,-0.787 -7.758,-1.97 -11.474,-3.546 -0.049,-0.019 -0.098,-0.037 -0.147,-0.059 -3.705,-1.593 -7.197,-3.485 -10.472,-5.684 -3.266,-2.191 -6.29,-4.677 -9.065,-7.462 -2.785,-2.775 -5.27,-5.799 -7.461,-9.065 C 8.288,92.591 6.396,89.098 4.802,85.393 L 4.806,85.391 4.802,85.382 C 3.196,81.624 1.994,77.754 1.198,73.773 0.4,69.782 0,65.67 0,61.439 0,57.21 0.4,53.097 1.199,49.105 1.986,45.172 3.169,41.347 4.745,37.632 4.763,37.583 4.782,37.533 4.803,37.485 6.397,33.78 8.288,30.287 10.487,27.012 c 2.192,-3.266 4.677,-6.29 7.461,-9.065 2.775,-2.785 5.799,-5.27 9.065,-7.462 3.275,-2.198 6.768,-4.09 10.472,-5.684 l 10e-4,0.004 0.009,-0.004 c 3.759,-1.604 7.63,-2.806 11.611,-3.603 z m 15.027,8.07 V 27.991 H 81.959 C 77.275,21.815 71.34,15.575 64.133,9.268 Z m 0,24.108 V 58.747 H 95.055 C 94.356,50.415 91.266,41.959 85.737,33.376 Z m 0,30.756 v 25.371 h 22.51 c 5.328,-8.396 8.189,-16.854 8.531,-25.371 z m 0,30.757 v 18.952 c 7.645,-6.283 13.902,-12.601 18.746,-18.952 z m -5.386,18.954 V 94.889 H 40 c 4.843,6.351 11.1,12.67 18.747,18.954 z m 0,-24.34 V 64.132 H 27.706 c 0.341,8.518 3.201,16.975 8.531,25.371 z m 0,-30.756 V 33.376 H 37.143 c -5.529,8.583 -8.619,17.04 -9.319,25.371 z m 0,-30.756 V 9.266 C 51.54,15.573 45.604,21.815 40.92,27.991 Z"
         id="path883"
         style="fill:#1a1a10;fill-opacity:1" /></g></g></svg>
